<svg width="1838" height="359" viewBox="0 0 1838 359" fill="none" xmlns="http://www.w3.org/2000/svg">
<path d="M1763 109.49C1748.2 113.623 1737.27 122.156 1731.4 134.023C1726.47 144.156 1726.2 159.49 1730.87 169.223C1737 182.023 1747.67 188.556 1773.53 195.623C1800.73 202.956 1807 207.09 1807 217.223C1807 228.956 1797.13 236.29 1781.67 236.29C1766.6 236.29 1754.73 229.356 1752.73 219.49L1752.07 215.623H1738.87C1731.53 215.623 1725.27 215.756 1724.73 215.89C1722.87 216.556 1724.47 226.956 1727.53 233.623C1739.8 260.29 1784.2 270.156 1815.4 253.223C1841.53 239.09 1845.8 203.49 1823.67 185.89C1816.6 180.29 1806.87 176.29 1789.4 171.756C1764.87 165.49 1758.87 161.223 1758.47 150.423C1758.2 139.356 1766.2 132.956 1780.33 132.956C1784.73 132.956 1790.33 133.756 1792.73 134.823C1797.8 136.823 1803.93 143.623 1805.13 148.423C1805.93 151.49 1806.2 151.623 1819.8 151.623C1833.53 151.623 1833.67 151.623 1833.67 148.423C1833.67 137.49 1824.2 122.823 1812.87 116.156C1799.27 108.156 1778.07 105.356 1763 109.49Z" fill="#0A0A0A"/>
<path d="M1621.67 185.956V259.29H1668.33H1715V245.29V231.29H1683H1651V171.956V112.623H1636.33H1621.67V185.956Z" fill="#0A0A0A"/>
<path d="M1530.07 111.356L1487.13 111.623L1486.73 124.423C1486.47 131.49 1486.6 137.49 1486.87 137.756C1487.13 138.023 1497.27 138.29 1509.27 138.29H1531V198.29V258.423L1546.07 258.023L1561 257.623L1561.27 252.956C1561.27 250.423 1561.53 223.49 1561.53 193.223L1561.67 138.29H1583H1604.47L1604.07 124.556L1603.67 110.956H1588.33C1579.93 110.956 1553.67 111.09 1530.07 111.356Z" fill="#0A0A0A"/>
<path d="M1343.67 111.356C1343.27 111.756 1343 144.956 1343 185.223V258.29H1358.33H1373.67V227.623V196.956H1405.67H1437.67V227.623V258.29H1453H1468.33V185.09V111.756L1453.53 111.356C1445.4 111.09 1438.47 111.223 1438.2 111.49C1437.93 111.756 1437.67 124.823 1437.67 140.556V168.956H1405.67H1373.67V139.49V110.156L1359 110.423C1350.87 110.556 1344.07 111.09 1343.67 111.356Z" fill="#0A0A0A"/>
<path d="M1255.25 190.526L1255.65 202.926L1288.72 203.326L1321.65 203.593V190.926V178.259H1288.32H1254.85L1255.25 190.526Z" fill="#0A0A0A"/>
<path d="M1205.78 96.5261C1205.78 97.1928 1205.65 132.659 1205.38 175.593L1204.98 253.593H1219.65H1234.32L1234.72 174.526L1234.98 95.5928H1220.32C1212.32 95.5928 1205.65 95.9928 1205.78 96.5261Z" fill="#0A0A0A"/>
<path d="M1172.05 139.593C1163.78 141.059 1157.12 145.326 1152.18 151.993L1148.32 157.326V149.193V140.926H1133.65H1118.98V197.593V254.393L1133.38 253.993L1147.65 253.593L1148.32 218.793L1148.98 183.993L1152.72 178.526C1157.38 171.326 1164.85 167.593 1176.45 166.659C1185.38 165.859 1185.65 165.859 1186.32 161.726C1186.85 159.459 1186.98 153.326 1186.72 148.259L1186.32 138.926L1182.32 138.659C1180.18 138.659 1175.52 139.059 1172.05 139.593Z" fill="#0A0A0A"/>
<path d="M1042.58 108.393C1042.05 108.926 1041.65 116.393 1041.65 125.059V140.793L1033.38 141.193L1024.98 141.593L1024.58 153.859L1024.18 166.259H1032.85H1041.38L1041.92 198.526C1042.32 234.393 1042.45 234.526 1051.78 244.926C1058.32 252.126 1068.05 255.593 1081.38 255.593C1098.18 255.593 1097.65 255.993 1097.65 241.726V229.326L1090.72 229.859C1081.38 230.526 1074.85 227.326 1072.72 220.926C1071.78 217.993 1071.12 206.926 1071.12 191.193L1070.98 166.259H1084.32H1097.65V153.593V140.926H1084.18H1070.85L1071.12 124.526L1071.25 108.259L1057.38 107.859C1049.78 107.726 1043.12 107.993 1042.58 108.393Z" fill="#0A0A0A"/>
<path d="M932.317 97.7262C905.517 104.793 883.917 126.926 877.117 154.393C874.317 165.593 874.317 190.926 876.984 201.326C883.784 227.46 905.65 248.926 931.784 255.06C951.117 259.593 974.184 255.86 990.317 245.593C1001.92 238.26 1013.92 222.126 1016.85 209.86L1017.65 206.26H1000.98H984.317L981.65 211.593C974.05 226.66 950.85 232.926 932.717 224.926C915.917 217.593 906.984 201.326 906.984 178.26C906.984 153.46 915.65 135.993 932.05 127.993C951.117 118.66 976.85 126.793 981.917 143.86L983.384 148.926H1000.05H1016.58L1015.78 143.86C1013.12 129.193 998.717 110.393 984.317 103.326C968.984 95.7262 948.317 93.4595 932.317 97.7262Z" fill="#0A0A0A"/>
<path d="M57.4672 1.92132C37.9166 6.05935 23.2104 14.0684 12.6565 26.2155C-0.319532 41.2993 0.026496 35.9599 0.026496 177.454C-0.146518 253.94 0.545538 306.8 1.58362 311.606C6.08199 333.097 27.8818 351.251 56.0831 356.857C65.0798 358.726 102.797 358.993 387.405 358.993C739.143 358.993 715.094 359.527 735.856 351.384C752.984 344.71 768.555 328.825 773.054 313.475C775.649 304.932 775.649 55.7156 773.054 46.3717C768.728 30.754 751.254 13.5345 732.741 6.72677C712.845 -0.481403 730.665 -0.0809493 385.675 0.0525354C116.292 0.0525354 65.0798 0.452989 57.4672 1.92132ZM713.537 29.8196C718.381 31.4214 724.783 35.159 728.07 37.9622C740.181 48.7744 739.489 40.0979 739.489 168.11V283.574L735.51 290.248C730.319 299.058 724.091 303.864 713.537 307.735L704.886 310.938H388.443C153.317 310.938 70.2702 310.538 65.4258 309.337C55.9101 307.201 45.0102 299.592 40.3388 291.717L36.1864 284.909V168.777V52.6455L40.3388 45.8378C45.0102 38.2292 54.3529 31.5549 64.7338 28.7517C70.6163 27.1499 118.022 26.7495 388.27 26.7495L704.886 26.616L713.537 29.8196Z" fill="#0A0A0A"/>
<path d="M575.406 51.6537C572.906 52.9883 551.188 70.8723 527.438 91.4255L484 128.661V195.793C484 241.304 484.469 263.725 485.719 265.594C489.625 271.867 492.281 272 584 272C675.719 272 678.375 271.867 682.281 265.594C683.531 263.725 684 241.437 684 196.327V129.863L636.656 89.557C585.25 45.5144 585.875 46.0483 575.406 51.6537ZM534.781 149.615C536.656 151.884 537.125 157.089 537.125 173.238V193.925L592.906 193.524C623.688 193.391 649.469 193.391 650.406 193.658C651.344 194.058 651.813 201.799 651.5 215.812L651.031 237.433L642.281 237.033L633.375 236.632L633.844 227.557L634.156 218.615H585.719H537.125V227.957V237.3H526.969H516.813V193.257V149.348L520.875 147.48C526.031 145.211 531.813 146.012 534.781 149.615ZM563.375 162.561C563.688 162.561 564.781 164.563 566.031 167.099C571.344 177.909 559.313 186.984 548.375 180.445C545.25 178.576 544.781 177.375 545.25 170.168C545.719 162.694 546.031 161.894 549.625 161.226C551.813 160.692 555.563 160.826 558.219 161.493C560.719 162.027 563.063 162.561 563.375 162.561ZM634.625 162.561C638.063 163.228 642.906 165.497 645.406 167.766C649.313 170.969 650.25 173.104 650.875 179.11L651.5 186.584H613.063H574.625V173.905V161.226H601.656C616.344 161.226 631.344 161.894 634.625 162.561Z" fill="#2563EB"/>
<path d="M144.346 100.785C114.004 105.052 93.153 121.719 85.2173 148.119C82.2609 158.252 82.2609 181.452 85.2173 192.652C90.0409 210.119 104.667 226.652 121.161 233.585C125.518 235.452 135.01 237.852 142.012 239.052C156.949 241.585 172.198 240.385 187.603 235.452C204.097 230.119 219.034 215.185 222.146 200.385L223.235 195.452H207.209L191.026 195.585L187.914 201.185C186.047 204.519 182.001 208.385 178.111 210.785C171.887 214.519 170.331 214.785 157.883 214.785C137.655 214.785 129.097 210.119 120.694 194.785C115.248 184.519 113.692 164.119 117.738 152.652C123.651 134.785 136.877 125.719 156.171 125.852C174.066 125.852 186.669 133.452 189.626 145.852L190.715 150.119H206.742H222.924V146.519C222.924 134.519 213.121 119.185 199.895 110.519C187.914 102.785 162.395 98.252 144.346 100.785Z" fill="#0A0A0A"/>
<path d="M389.417 104.385C389.417 105.052 389.262 135.185 389.106 171.452L388.639 237.452H403.422H418.204L418.67 170.385L418.982 103.452H404.2C396.108 103.452 389.417 103.852 389.417 104.385Z" fill="#0A0A0A"/>
<path d="M248.443 114.785C248.132 115.452 247.976 121.052 248.287 127.052L248.598 137.852L240.507 138.785L232.26 139.585V150.252V160.785H240.507H248.598L248.132 185.052C247.509 221.052 249.843 229.985 261.513 235.852C267.582 238.919 285.476 240.252 294.19 238.252L300.725 236.652V226.785V216.785H292.478C279.096 216.785 278.941 216.519 278.941 186.385V160.785H289.833H300.88L300.414 149.985L299.947 139.185L289.833 138.919L279.719 138.785L278.941 126.385L278.163 113.852L263.536 113.719C254.978 113.585 248.754 113.985 248.443 114.785Z" fill="#0A0A0A"/>
<path d="M363.121 138.385C358.297 139.318 354.407 141.451 349.584 145.718L342.737 151.718V145.585V139.451H328.422H313.951L314.262 188.385L314.729 237.451L328.577 237.851L342.581 238.251L343.048 209.185C343.671 170.518 345.382 167.451 367.322 165.318L376.969 164.385V151.985C376.969 145.051 376.969 139.051 376.969 138.385C377.125 136.918 370.745 136.918 363.121 138.385Z" fill="#0A0A0A"/>
</svg>
