<svg width="1611" height="359" viewBox="0 0 1611 359" fill="none" xmlns="http://www.w3.org/2000/svg">
<path d="M1535.25 109.49C1520.45 113.623 1509.52 122.156 1503.65 134.023C1498.72 144.156 1498.45 159.49 1503.12 169.223C1509.25 182.023 1519.92 188.556 1545.79 195.623C1572.99 202.956 1579.25 207.09 1579.25 217.223C1579.25 228.956 1569.39 236.29 1553.92 236.29C1538.85 236.29 1526.99 229.356 1524.99 219.49L1524.32 215.623H1511.12C1503.79 215.623 1497.52 215.756 1496.99 215.89C1495.12 216.556 1496.72 226.956 1499.79 233.623C1512.05 260.29 1556.45 270.156 1587.65 253.223C1613.79 239.09 1618.05 203.49 1595.92 185.89C1588.85 180.29 1579.12 176.29 1561.65 171.756C1537.12 165.49 1531.12 161.223 1530.72 150.423C1530.45 139.356 1538.45 132.956 1552.59 132.956C1556.99 132.956 1562.59 133.756 1564.99 134.823C1570.05 136.823 1576.19 143.623 1577.39 148.423C1578.19 151.49 1578.45 151.623 1592.05 151.623C1605.79 151.623 1605.92 151.623 1605.92 148.423C1605.92 137.49 1596.45 122.823 1585.12 116.156C1571.52 108.156 1550.32 105.356 1535.25 109.49Z" fill="white"/>
<path d="M1393.92 185.956V259.29H1440.59H1487.25V245.29V231.29H1455.25H1423.25V171.956V112.623H1408.59H1393.92V185.956Z" fill="white"/>
<path d="M1302.32 111.356L1259.39 111.623L1258.99 124.423C1258.72 131.49 1258.85 137.49 1259.12 137.756C1259.39 138.023 1269.52 138.29 1281.52 138.29H1303.25V198.29V258.423L1318.32 258.023L1333.25 257.623L1333.52 252.956C1333.52 250.423 1333.79 223.49 1333.79 193.223L1333.92 138.29H1355.25H1376.72L1376.32 124.556L1375.92 110.956H1360.59C1352.19 110.956 1325.92 111.09 1302.32 111.356Z" fill="white"/>
<path d="M1115.92 111.356C1115.52 111.756 1115.25 144.956 1115.25 185.223V258.29H1130.59H1145.92V227.623V196.956H1177.92H1209.92V227.623V258.29H1225.25H1240.59V185.09V111.756L1225.79 111.356C1217.65 111.09 1210.72 111.223 1210.45 111.49C1210.19 111.756 1209.92 124.823 1209.92 140.556V168.956H1177.92H1145.92V139.49V110.156L1131.25 110.423C1123.12 110.556 1116.32 111.09 1115.92 111.356Z" fill="white"/>
<path d="M1027.5 190.526L1027.9 202.926L1060.97 203.326L1093.9 203.593V190.926V178.259H1060.57H1027.1L1027.5 190.526Z" fill="white"/>
<path d="M978.038 96.5261C978.038 97.1928 977.904 132.659 977.638 175.593L977.238 253.593H991.904H1006.57L1006.97 174.526L1007.24 95.5928H992.571C984.571 95.5928 977.904 95.9928 978.038 96.5261Z" fill="white"/>
<path d="M944.304 139.593C936.037 141.059 929.371 145.326 924.437 151.993L920.571 157.326V149.193V140.926H905.904H891.237V197.593V254.393L905.637 253.993L919.904 253.593L920.571 218.793L921.237 183.993L924.971 178.526C929.637 171.326 937.104 167.593 948.704 166.659C957.637 165.859 957.904 165.859 958.571 161.726C959.104 159.459 959.237 153.326 958.971 148.259L958.571 138.926L954.571 138.659C952.437 138.659 947.771 139.059 944.304 139.593Z" fill="white"/>
<path d="M814.838 108.393C814.304 108.926 813.904 116.393 813.904 125.059V140.793L805.638 141.193L797.238 141.593L796.838 153.859L796.438 166.259H805.104H813.638L814.171 198.526C814.571 234.393 814.704 234.526 824.038 244.926C830.571 252.126 840.304 255.593 853.638 255.593C870.438 255.593 869.904 255.993 869.904 241.726V229.326L862.971 229.859C853.638 230.526 847.104 227.326 844.971 220.926C844.038 217.993 843.371 206.926 843.371 191.193L843.238 166.259H856.571H869.904V153.593V140.926H856.438H843.104L843.371 124.526L843.504 108.259L829.638 107.859C822.038 107.726 815.371 107.993 814.838 108.393Z" fill="white"/>
<path d="M704.571 97.7262C677.771 104.793 656.171 126.926 649.371 154.393C646.571 165.593 646.571 190.926 649.237 201.326C656.037 227.46 677.904 248.926 704.037 255.06C723.371 259.593 746.437 255.86 762.571 245.593C774.171 238.26 786.171 222.126 789.104 209.86L789.904 206.26H773.237H756.571L753.904 211.593C746.304 226.66 723.104 232.926 704.971 224.926C688.171 217.593 679.237 201.326 679.237 178.26C679.237 153.46 687.904 135.993 704.304 127.993C723.371 118.66 749.104 126.793 754.171 143.86L755.637 148.926H772.304H788.837L788.037 143.86C785.371 129.193 770.971 110.393 756.571 103.326C741.237 95.7262 720.571 93.4595 704.571 97.7262Z" fill="white"/>
<path d="M44.2871 1.91893C29.2204 6.05226 17.8871 14.0523 9.75375 26.1856C-0.246247 41.2523 0.0204192 35.9189 0.0204192 177.252C-0.112914 253.652 0.420419 306.452 1.22042 311.252C4.68709 332.719 21.4871 350.852 43.2204 356.452C50.1538 358.319 79.2204 358.586 298.554 358.586C569.62 358.586 551.087 359.119 567.087 350.986C580.287 344.319 592.287 328.452 595.754 313.119C597.754 304.586 597.754 55.6523 595.754 46.3189C592.42 30.7189 578.954 13.5189 564.687 6.71893C549.354 -0.481073 563.087 -0.0810734 297.22 0.0522599C89.6204 0.0522599 50.1538 0.45226 44.2871 1.91893ZM549.887 29.7856C553.62 31.3856 558.554 35.1189 561.087 37.9189C570.42 48.7189 569.887 40.0523 569.887 167.919V283.252L566.82 289.919C562.82 298.719 558.02 303.519 549.887 307.386L543.22 310.586H299.354C118.154 310.586 54.1538 310.186 50.4204 308.986C43.0871 306.852 34.6871 299.252 31.0871 291.386L27.8871 284.586V168.586V52.5856L31.0871 45.7856C34.6871 38.1856 41.8871 31.5189 49.8871 28.7189C54.4204 27.1189 90.9537 26.7189 299.22 26.7189L543.22 26.5856L549.887 29.7856Z" fill="white"/>
<path d="M455.22 62.4521C453.087 63.7854 434.554 81.6521 414.287 102.185L377.22 139.385V206.452C377.22 251.919 377.62 274.319 378.687 276.185C382.02 282.452 384.287 282.585 462.554 282.585C540.82 282.585 543.087 282.452 546.42 276.185C547.487 274.319 547.887 252.052 547.887 206.985V140.585L507.487 100.319C463.62 56.3188 464.154 56.8521 455.22 62.4521ZM420.554 160.319C422.154 162.585 422.554 167.785 422.554 183.919V204.585L470.154 204.185C496.42 204.052 518.42 204.052 519.22 204.319C520.02 204.719 520.42 212.452 520.154 226.452L519.754 248.052L512.287 247.652L504.687 247.252L505.087 238.185L505.354 229.252H464.02H422.554V238.585V247.919H413.887H405.22V203.919V160.052L408.687 158.185C413.087 155.919 418.02 156.719 420.554 160.319ZM444.954 173.252C445.22 173.252 446.154 175.252 447.22 177.785C451.754 188.585 441.487 197.652 432.154 191.119C429.487 189.252 429.087 188.052 429.487 180.852C429.887 173.385 430.154 172.585 433.22 171.919C435.087 171.385 438.287 171.519 440.554 172.185C442.687 172.719 444.687 173.252 444.954 173.252ZM505.754 173.252C508.687 173.919 512.82 176.185 514.954 178.452C518.287 181.652 519.087 183.785 519.62 189.785L520.154 197.252H487.354H454.554V184.585V171.919H477.62C490.154 171.919 502.954 172.585 505.754 173.252Z" fill="#2563EB"/>
<path d="M117.887 102.586C91.8871 106.852 74.0204 123.519 67.2204 149.919C64.6871 160.052 64.6871 183.252 67.2204 194.452C71.3538 211.919 83.8871 228.452 98.0204 235.386C101.754 237.252 109.887 239.652 115.887 240.852C128.687 243.386 141.754 242.186 154.954 237.252C169.087 231.919 181.887 216.986 184.554 202.186L185.487 197.252H171.754L157.887 197.386L155.22 202.986C153.62 206.319 150.154 210.186 146.82 212.586C141.487 216.319 140.154 216.586 129.487 216.586C112.154 216.586 104.82 211.919 97.6204 196.586C92.9538 186.319 91.6204 165.919 95.0871 154.452C100.154 136.586 111.487 127.519 128.02 127.652C143.354 127.652 154.154 135.252 156.687 147.652L157.62 151.919H171.354H185.22V148.319C185.22 136.319 176.82 120.986 165.487 112.319C155.22 104.586 133.354 100.052 117.887 102.586Z" fill="white"/>
<path d="M327.887 106.186C327.887 106.852 327.754 136.986 327.62 173.252L327.22 239.252H339.887H352.554L352.954 172.186L353.22 105.252H340.554C333.62 105.252 327.887 105.652 327.887 106.186Z" fill="white"/>
<path d="M207.087 116.586C206.82 117.252 206.687 122.852 206.954 128.852L207.22 139.652L200.287 140.586L193.22 141.386V152.052V162.586H200.287H207.22L206.82 186.852C206.287 222.852 208.287 231.786 218.287 237.652C223.487 240.719 238.82 242.052 246.287 240.052L251.887 238.452V228.586V218.586H244.82C233.354 218.586 233.22 218.319 233.22 188.186V162.586H242.554H252.02L251.62 151.786L251.22 140.986L242.554 140.719L233.887 140.586L233.22 128.186L232.554 115.652L220.02 115.519C212.687 115.386 207.354 115.786 207.087 116.586Z" fill="white"/>
<path d="M305.354 140.186C301.22 141.119 297.887 143.252 293.754 147.519L287.887 153.519V147.386V141.252H275.62H263.22L263.487 190.186L263.887 239.252L275.754 239.652L287.754 240.052L288.154 210.986C288.687 172.319 290.154 169.252 308.954 167.119L317.22 166.186V153.786C317.22 146.852 317.22 140.852 317.22 140.186C317.354 138.719 311.887 138.719 305.354 140.186Z" fill="white"/>
</svg>
